<svg width="900" height="1800" viewBox="0 0 900 1800" fill="none" xmlns="http://www.w3.org/2000/svg">
  <defs>
    <linearGradient id="sky" x1="114" y1="64" x2="790" y2="1180" gradientUnits="userSpaceOnUse">
      <stop stop-color="#BDE2FF"/>
      <stop offset="1" stop-color="#EEF4FB"/>
    </linearGradient>
    <linearGradient id="cta" x1="120" y1="1040" x2="780" y2="1040" gradientUnits="userSpaceOnUse">
      <stop stop-color="#536CFF"/>
      <stop offset="1" stop-color="#58B3FF"/>
    </linearGradient>
  </defs>
  <rect width="900" height="1800" fill="#F4F7FB"/>
  <rect x="0" y="0" width="900" height="700" fill="url(#sky)"/>
  <rect x="0" y="700" width="900" height="1100" fill="#F4F7FB"/>

  <text x="42" y="82" fill="#111827" font-size="40" font-family="Arial" font-weight="700">9:41</text>
  <text x="40" y="190" fill="#0F172A" font-size="44" font-family="Arial" font-weight="700">清远市</text>
  <path d="M190 176L212 198L234 176" stroke="#0F172A" stroke-width="8" stroke-linecap="round" stroke-linejoin="round"/>

  <text x="40" y="436" fill="#FF6500" font-size="170" font-family="Arial" font-weight="900">10</text>
  <text x="310" y="436" fill="#303B56" font-size="82" font-family="Arial" font-weight="900">元起</text>
  <text x="40" y="556" fill="#303B56" font-size="112" font-family="Arial" font-weight="900">全员慢5公里</text>

  <g transform="translate(410 190)">
    <ellipse cx="240" cy="250" rx="228" ry="44" fill="#9AB4D2" fill-opacity="0.35"/>
    <path d="M38 220C52 146 110 106 190 106H286C354 106 404 144 434 204L462 258H24L38 220Z" fill="#5D9BFF"/>
    <rect x="82" y="146" width="118" height="80" rx="18" fill="#7FB2FF"/>
    <rect x="212" y="132" width="144" height="100" rx="20" fill="#7FB2FF"/>
    <circle cx="136" cy="268" r="40" fill="#EEF2F8"/>
    <circle cx="352" cy="268" r="40" fill="#EEF2F8"/>
    <circle cx="136" cy="268" r="20" fill="#9AA5B6"/>
    <circle cx="352" cy="268" r="20" fill="#9AA5B6"/>
  </g>

  <g transform="translate(630 150)">
    <circle cx="110" cy="132" r="60" fill="#FFB14D"/>
    <rect x="66" y="182" width="88" height="136" rx="16" fill="#2B3447"/>
    <rect x="42" y="182" width="34" height="112" rx="16" fill="#2B3447"/>
    <rect x="144" y="182" width="34" height="112" rx="16" fill="#2B3447"/>
    <rect x="74" y="208" width="72" height="90" rx="16" fill="#0F172A"/>
    <rect x="82" y="220" width="56" height="28" rx="8" fill="#FFB14D"/>
    <rect x="82" y="258" width="20" height="28" rx="8" fill="#FFB14D"/>
    <rect x="118" y="258" width="20" height="28" rx="8" fill="#FFB14D"/>
  </g>

  <rect x="30" y="560" width="840" height="760" rx="44" fill="#FFFDFB"/>
  <text x="58" y="640" fill="#6B7280" font-size="32" font-family="Arial" font-weight="700">预估：73.9元</text>
  <text x="58" y="760" fill="#FF6500" font-size="90" font-family="Arial" font-weight="900">68.9</text>
  <text x="288" y="760" fill="#FF6500" font-size="48" font-family="Arial" font-weight="700">元</text>
  <rect x="58" y="820" width="784" height="128" rx="26" fill="#EFF3F9"/>
  <text x="98" y="902" fill="#4B5563" font-size="54" font-family="Arial" font-weight="700">选择目的地</text>

  <rect x="58" y="1000" width="784" height="118" rx="32" fill="url(#cta)"/>
  <text x="332" y="1074" fill="white" font-size="60" font-family="Arial" font-weight="800">叫代驾</text>

  <rect x="30" y="1360" width="840" height="126" rx="36" fill="#FFF7EF" stroke="#F2DCC7"/>
  <text x="62" y="1434" fill="#1F2937" font-size="56" font-family="Arial" font-weight="800">邀请好友</text>
  <rect x="30" y="1516" width="840" height="126" rx="36" fill="#ECF6FF" stroke="#CFE3FF"/>
  <text x="62" y="1590" fill="#1F2937" font-size="56" font-family="Arial" font-weight="800">成为司机</text>

  <rect x="0" y="1688" width="900" height="112" fill="#FFFFFF"/>
  <circle cx="144" cy="1744" r="26" fill="#5C7CFF"/>
  <circle cx="450" cy="1744" r="26" fill="#A0AEC0"/>
  <circle cx="756" cy="1744" r="26" fill="#A0AEC0"/>
</svg>
